<svg width="22" height="22" viewBox="0 0 22 22" fill="none" xmlns="http://www.w3.org/2000/svg">
<g id="Comment Review">
<path id="Vector" d="M21 10.4446C21.0038 11.9111 20.6612 13.3578 20 14.6668C19.216 16.2354 18.0108 17.5548 16.5194 18.4771C15.0279 19.3994 13.3091 19.8883 11.5555 19.889C10.089 19.8928 8.64234 19.5502 7.33332 18.889L1 21.0001L3.11111 14.6668C2.44992 13.3578 2.10729 11.9111 2.11111 10.4446C2.11179 8.69098 2.60068 6.9722 3.52302 5.48076C4.44536 3.98931 5.76472 2.78411 7.33332 2.00015C8.64234 1.33897 10.089 0.99633 11.5555 1.00015H12.1111C14.427 1.12792 16.6145 2.10544 18.2546 3.74555C19.8947 5.38565 20.8722 7.57309 21 9.88903V10.4446Z" stroke="black" stroke-linecap="round" stroke-linejoin="round"/>
</g>
</svg>
