<svg width="16" height="16" viewBox="0 0 16 16" fill="none" xmlns="http://www.w3.org/2000/svg">
<g id="CTA">
<path id="Vector (Stroke)" fill-rule="evenodd" clip-rule="evenodd" d="M8 1.11628C4.19823 1.11628 1.11628 4.19823 1.11628 8C1.11628 11.8018 4.19823 14.8837 8 14.8837C11.8018 14.8837 14.8837 11.8018 14.8837 8C14.8837 4.19823 11.8018 1.11628 8 1.11628ZM0 8C0 3.58172 3.58172 0 8 0C12.4183 0 16 3.58172 16 8C16 12.4183 12.4183 16 8 16C3.58172 16 0 12.4183 0 8Z" fill="#688BFF"/>
<path id="Vector (Stroke)_2" fill-rule="evenodd" clip-rule="evenodd" d="M7.60488 4.62862C7.82285 4.41066 8.17624 4.41066 8.39421 4.62862L11.371 7.60537C11.5889 7.82333 11.5889 8.17673 11.371 8.3947L8.39421 11.3714C8.17624 11.5894 7.82285 11.5894 7.60488 11.3714C7.38691 11.1535 7.38691 10.8001 7.60488 10.5821L10.187 8.00003L7.60488 5.41795C7.38691 5.19999 7.38691 4.84659 7.60488 4.62862Z" fill="#688BFF"/>
<path id="Vector (Stroke)_3" fill-rule="evenodd" clip-rule="evenodd" d="M4.46484 7.99997C4.46484 7.69172 4.71473 7.44183 5.02298 7.44183L10.9765 7.44183C11.2847 7.44183 11.5346 7.69172 11.5346 7.99997C11.5346 8.30822 11.2847 8.55811 10.9765 8.55811L5.02298 8.55811C4.71473 8.55811 4.46484 8.30822 4.46484 7.99997Z" fill="#688BFF"/>
</g>
</svg>
