<svg width="22" height="22" viewBox="0 0 22 22" fill="none" xmlns="http://www.w3.org/2000/svg">
<g id="Group 105">
<path id="Vector 4" d="M19 1L19 4.99995" stroke="#D9D9D9" stroke-linecap="round"/>
<path id="Vector" d="M18.9998 9.00005V18.9999C18.9998 20.1045 18.1043 20.9999 16.9998 20.9999H2.99997C1.89542 20.9999 1 20.1045 1 18.9999V5.0001C1 3.89554 1.89542 3.00012 2.99997 3.00012H12.9998" stroke="#D9D9D9" stroke-linecap="round" stroke-linejoin="round"/>
<path id="Vector 3" d="M17 3.00012H20.9999" stroke="#D9D9D9" stroke-linecap="round"/>
<path id="Vector_2" d="M6.49998 10C7.3284 10 7.99996 9.32846 7.99996 8.50004C7.99996 7.67163 7.3284 7.00006 6.49998 7.00006C5.67156 7.00006 5 7.67163 5 8.50004C5 9.32846 5.67156 10 6.49998 10Z" stroke="#D9D9D9" stroke-linecap="round" stroke-linejoin="round"/>
<path id="Vector_3" d="M18.9998 14.9996L13.9999 9.99969L3 20.9996" stroke="#D9D9D9" stroke-linecap="round" stroke-linejoin="round"/>
</g>
</svg>
