<svg width="32" height="32" viewBox="0 0 32 32" fill="none" xmlns="http://www.w3.org/2000/svg">
<g id="Group 99">
<g id="Plus">
<path id="Vector (Stroke)" fill-rule="evenodd" clip-rule="evenodd" d="M16 9C16.5523 9 17 9.47485 17 10.0606V21.9394C17 22.5252 16.5523 23 16 23C15.4477 23 15 22.5252 15 21.9394V10.0606C15 9.47485 15.4477 9 16 9Z" fill="#D9D9D9"/>
<path id="Vector (Stroke)_2" fill-rule="evenodd" clip-rule="evenodd" d="M9 16C9 15.4477 9.47485 15 10.0606 15H21.9394C22.5252 15 23 15.4477 23 16C23 16.5523 22.5252 17 21.9394 17H10.0606C9.47485 17 9 16.5523 9 16Z" fill="#D9D9D9"/>
</g>
<path id="Ellipse" fill-rule="evenodd" clip-rule="evenodd" d="M12.8782 0.304529C13.8884 0.104672 14.9324 0 16 0C17.0676 0 18.1116 0.104671 19.1218 0.304529C19.51 0.381315 19.7624 0.758216 19.6856 1.14636C19.6088 1.5345 19.2319 1.78691 18.8437 1.71012C17.9246 1.52829 16.9738 1.43284 16 1.43284C15.0262 1.43284 14.0754 1.52829 13.1563 1.71012C12.7681 1.78691 12.3912 1.53451 12.3144 1.14636C12.2376 0.758217 12.49 0.381316 12.8782 0.304529ZM23.8965 2.89214C24.1166 2.56336 24.5616 2.47526 24.8904 2.69538C26.6349 3.8633 28.1367 5.36513 29.3046 7.10964C29.5247 7.43843 29.4366 7.88341 29.1079 8.10352C28.7791 8.32364 28.3341 8.23555 28.114 7.90676C27.0502 6.31788 25.6821 4.94975 24.0932 3.88602C23.7645 3.6659 23.6764 3.22093 23.8965 2.89214ZM8.10352 2.89214C8.32364 3.22093 8.23555 3.66591 7.90676 3.88602C6.31788 4.94975 4.94975 6.31788 3.88602 7.90676C3.6659 8.23555 3.22093 8.32364 2.89214 8.10352C2.56336 7.88341 2.47526 7.43843 2.69538 7.10965C3.8633 5.36513 5.36513 3.8633 7.10964 2.69538C7.43843 2.47526 7.88341 2.56336 8.10352 2.89214ZM30.8536 12.3144C31.2418 12.2376 31.6187 12.49 31.6955 12.8782C31.8953 13.8884 32 14.9324 32 16C32 17.0676 31.8953 18.1116 31.6955 19.1218C31.6187 19.51 31.2418 19.7624 30.8536 19.6856C30.4655 19.6088 30.2131 19.2319 30.2899 18.8437C30.4717 17.9246 30.5672 16.9738 30.5672 16C30.5672 15.0262 30.4717 14.0754 30.2899 13.1563C30.2131 12.7681 30.4655 12.3912 30.8536 12.3144ZM1.14636 12.3144C1.5345 12.3912 1.78691 12.7681 1.71012 13.1563C1.52829 14.0754 1.43284 15.0262 1.43284 16C1.43284 16.9738 1.52829 17.9246 1.71012 18.8437C1.78691 19.2319 1.53451 19.6088 1.14636 19.6856C0.758217 19.7624 0.381316 19.51 0.304529 19.1218C0.104672 18.1116 0 17.0676 0 16C0 14.9324 0.104671 13.8884 0.304529 12.8782C0.381315 12.49 0.758216 12.2376 1.14636 12.3144ZM29.1079 23.8965C29.4366 24.1166 29.5247 24.5616 29.3046 24.8904C28.1367 26.6349 26.6349 28.1367 24.8904 29.3046C24.5616 29.5247 24.1166 29.4366 23.8965 29.1079C23.6764 28.7791 23.7645 28.3341 24.0932 28.114C25.6821 27.0502 27.0503 25.6821 28.114 24.0932C28.3341 23.7645 28.7791 23.6764 29.1079 23.8965ZM2.89214 23.8965C3.22093 23.6764 3.66591 23.7645 3.88602 24.0932C4.94975 25.6821 6.31788 27.0503 7.90676 28.114C8.23555 28.3341 8.32364 28.7791 8.10352 29.1079C7.88341 29.4366 7.43843 29.5247 7.10965 29.3046C5.36513 28.1367 3.8633 26.6349 2.69538 24.8904C2.47526 24.5616 2.56336 24.1166 2.89214 23.8965ZM12.3144 30.8536C12.3912 30.4655 12.7681 30.2131 13.1563 30.2899C14.0754 30.4717 15.0262 30.5672 16 30.5672C16.9738 30.5672 17.9246 30.4717 18.8437 30.2899C19.2319 30.2131 19.6088 30.4655 19.6856 30.8536C19.7624 31.2418 19.51 31.6187 19.1218 31.6955C18.1116 31.8953 17.0676 32 16 32C14.9324 32 13.8884 31.8953 12.8782 31.6955C12.49 31.6187 12.2376 31.2418 12.3144 30.8536Z" fill="#D9D9D9"/>
</g>
</svg>
