<svg width="20" height="20" viewBox="0 0 20 20" fill="none" xmlns="http://www.w3.org/2000/svg">
<path id="Vector (Stroke)" fill-rule="evenodd" clip-rule="evenodd" d="M9.38512 0.25469C9.72471 -0.0848966 10.2753 -0.0848966 10.6149 0.25469L19.7453 9.38512C20.0849 9.72471 20.0849 10.2753 19.7453 10.6149C19.4057 10.9545 18.8551 10.9545 18.5156 10.6149L17.971 10.0703V17.1014C17.971 18.7023 16.6733 20 15.0725 20H4.92754C3.32671 20 2.02899 18.7023 2.02899 17.1014V10.0703L1.48444 10.6149C1.14485 10.9545 0.594276 10.9545 0.25469 10.6149C-0.0848966 10.2753 -0.0848966 9.72471 0.25469 9.38512L9.38512 0.25469ZM3.76812 8.3312V17.1014C3.76812 17.7418 4.28721 18.2609 4.92754 18.2609H15.0725C15.7128 18.2609 16.2319 17.7418 16.2319 17.1014V8.3312L10 2.09932L3.76812 8.3312Z" fill="black"/>
</svg>
