<svg width="22" height="22" viewBox="0 0 22 22" fill="none" xmlns="http://www.w3.org/2000/svg">
<g id="Property 1=Active">
<g id="Vector">
<path d="M13.1935 8V4C13.1935 3.20435 12.8723 2.44129 12.3006 1.87868C11.729 1.31607 10.9536 1 10.1451 1L6.08062 10V21H17.5425C18.0326 21.0055 18.5082 20.8364 18.8816 20.524C19.2551 20.2116 19.5012 19.7769 19.5747 19.3L20.977 10.3C21.0212 10.0134 21.0016 9.72068 20.9194 9.44225C20.8373 9.16382 20.6946 8.90629 20.5013 8.68751C20.308 8.46873 20.0687 8.29393 19.7999 8.17522C19.5311 8.0565 19.2393 7.99672 18.9447 8H13.1935ZM6.08062 21H3.03225C2.49326 21 1.97635 20.7893 1.59523 20.4142C1.21411 20.0391 1 19.5304 1 19V12C1 11.4696 1.21411 10.9609 1.59523 10.5858C1.97635 10.2107 2.49326 10 3.03225 10H6.08062" fill="black"/>
<path d="M6.08062 10L10.1451 1C10.9536 1 11.729 1.31607 12.3006 1.87868C12.8723 2.44129 13.1935 3.20435 13.1935 4V8H18.9447C19.2393 7.99672 19.5311 8.0565 19.7999 8.17522C20.0687 8.29393 20.308 8.46873 20.5013 8.68751C20.6946 8.90629 20.8373 9.16382 20.9194 9.44225C21.0016 9.72068 21.0212 10.0134 20.977 10.3L19.5747 19.3C19.5012 19.7769 19.2551 20.2116 18.8816 20.524C18.5082 20.8364 18.0326 21.0055 17.5425 21H6.08062M6.08062 10V21M6.08062 10H3.03225C2.49326 10 1.97635 10.2107 1.59523 10.5858C1.21411 10.9609 1 11.4696 1 12V19C1 19.5304 1.21411 20.0391 1.59523 20.4142C1.97635 20.7893 2.49326 21 3.03225 21H6.08062" stroke="white" stroke-linecap="round" stroke-linejoin="round"/>
</g>
</g>
</svg>
