<svg width="19" height="24" viewBox="0 0 19 24" fill="none" xmlns="http://www.w3.org/2000/svg">
<g id="Location">
<path id="Vector (Stroke)" fill-rule="evenodd" clip-rule="evenodd" d="M9.5 1.5C7.24566 1.5 5.08365 2.39553 3.48959 3.98959C1.89553 5.58365 1 7.74566 1 10C1 13.299 3.13287 16.4271 5.36298 18.7811C6.46781 19.9473 7.57433 20.9004 8.40521 21.562C8.82026 21.8925 9.16551 22.1495 9.40603 22.3232C9.43941 22.3473 9.47076 22.3698 9.5 22.3906C9.52924 22.3698 9.56059 22.3473 9.59397 22.3232C9.83449 22.1495 10.1797 21.8925 10.5948 21.562C11.4257 20.9004 12.5322 19.9473 13.637 18.7811C15.8671 16.4271 18 13.299 18 10C18 7.74566 17.1045 5.58365 15.5104 3.98959C13.9163 2.39553 11.7543 1.5 9.5 1.5ZM9.5 23C9.22265 23.416 9.22251 23.4159 9.22233 23.4158L9.2218 23.4155L9.22013 23.4143L9.21436 23.4105L9.19325 23.3962C9.175 23.3838 9.14848 23.3657 9.11424 23.3419C9.04577 23.2945 8.9464 23.2248 8.82054 23.1339C8.56887 22.9521 8.21099 22.6856 7.78229 22.3443C6.92567 21.6621 5.78219 20.6777 4.63702 19.4689C2.36713 17.0729 0 13.701 0 10C2.98023e-08 7.48044 1.00089 5.06408 2.78249 3.28249C4.56408 1.50089 6.98044 0.5 9.5 0.5C12.0196 0.5 14.4359 1.50089 16.2175 3.28249C17.9991 5.06408 19 7.48044 19 10C19 13.701 16.6329 17.0729 14.363 19.4689C13.2178 20.6777 12.0743 21.6621 11.2177 22.3443C10.789 22.6856 10.4311 22.9521 10.1795 23.1339C10.0536 23.2248 9.95423 23.2945 9.88576 23.3419C9.85152 23.3657 9.825 23.3838 9.80675 23.3962L9.78564 23.4105L9.77987 23.4143L9.7782 23.4155L9.77767 23.4158C9.77749 23.4159 9.77735 23.416 9.5 23ZM9.5 23L9.77735 23.416C9.6094 23.528 9.3906 23.528 9.22265 23.416L9.5 23Z" fill="black"/>
<path id="Vector (Stroke)_2" fill-rule="evenodd" clip-rule="evenodd" d="M9.5 7.5C8.11929 7.5 7 8.61929 7 10C7 11.3807 8.11929 12.5 9.5 12.5C10.8807 12.5 12 11.3807 12 10C12 8.61929 10.8807 7.5 9.5 7.5ZM6 10C6 8.067 7.567 6.5 9.5 6.5C11.433 6.5 13 8.067 13 10C13 11.933 11.433 13.5 9.5 13.5C7.567 13.5 6 11.933 6 10Z" fill="black"/>
</g>
</svg>
