<svg width="24" height="20" viewBox="0 0 24 20" fill="none" xmlns="http://www.w3.org/2000/svg">
<path id="Union" fill-rule="evenodd" clip-rule="evenodd" d="M17.236 0H6.764C6.16396 0.00032568 5.57694 0.171932 5.07017 0.493329C4.5641 0.814281 4.15856 1.27113 3.89629 1.8102L3.89555 1.81173L0.110866 9.5419C0.040011 9.67914 0 9.8349 0 10V16.75C0 17.6048 0.331808 18.429 0.929358 19.0401C1.52765 19.652 2.34396 20 3.2 20H20.8C21.656 20 22.4723 19.652 23.0706 19.0401C23.6682 18.429 24 17.6048 24 16.75V10C24 9.98675 23.9997 9.97352 23.9992 9.96031C23.9933 9.80994 23.9543 9.66809 23.8891 9.54189L20.1045 1.81173L20.1036 1.81003C19.8414 1.27103 19.4358 0.814247 18.9298 0.493329C18.4231 0.171932 17.836 0.000325918 17.236 0ZM21.397 9L18.3069 2.68847L18.3055 2.68577C18.2035 2.47578 18.0478 2.30225 17.8587 2.1823C17.6698 2.06253 17.4541 2.00015 17.2356 2H6.76435C6.54588 2.00015 6.33018 2.06253 6.14133 2.1823C5.95219 2.30225 5.79648 2.47578 5.69445 2.68577L5.69314 2.68848L2.60302 9H7.6C7.91854 9 8.21803 9.15176 8.4064 9.40864L10.3067 12H13.6933L15.5936 9.40864C15.782 9.15176 16.0815 9 16.4 9H21.397ZM2 11V16.75C2 17.0887 2.13176 17.4091 2.35937 17.6419C2.58624 17.8739 2.88908 18 3.2 18H20.8C21.1109 18 21.4138 17.8739 21.6406 17.6419C21.8682 17.4091 22 17.0887 22 16.75V11H16.9067L15.0064 13.5914C14.818 13.8482 14.5185 14 14.2 14H9.8C9.48146 14 9.18197 13.8482 8.9936 13.5914L7.09326 11H2Z" fill="black"/>
</svg>
