<svg width="14" height="15" viewBox="0 0 14 15" fill="none" xmlns="http://www.w3.org/2000/svg">
<path id="Vector" d="M13.6649 0.361297C13.5138 0.200123 13.3242 0.0868177 13.117 0.0338347C12.9099 -0.0191483 12.6931 -0.00975873 12.4906 0.0609716L0.802899 4.24836C0.586139 4.32213 0.394594 4.46325 0.252458 4.65388C0.110322 4.84451 0.0239705 5.07611 0.00430932 5.31942C-0.0153518 5.56274 0.0325595 5.80685 0.141992 6.02093C0.251425 6.23502 0.41747 6.40947 0.619156 6.52225L5.46838 9.09646L7.86503 14.3221C7.96136 14.5267 8.10877 14.6984 8.29076 14.8181C8.47276 14.9378 8.68218 15.0008 8.89559 15H8.97548C9.20403 14.9819 9.42224 14.8904 9.60175 14.7374C9.78126 14.5844 9.91378 14.3769 9.98207 14.1419L13.9365 1.62266C14.0072 1.40637 14.0191 1.17298 13.971 0.949673C13.9229 0.726364 13.8168 0.52232 13.6649 0.361297ZM1.29821 5.4325L11.4999 1.77711L5.83587 7.86084L1.29821 5.4325ZM8.95151 13.6442L6.68268 8.7704L12.3468 2.68667L8.95151 13.6442Z" fill="white"/>
</svg>
